<svg xmlns="http://www.w3.org/2000/svg" xmlns:xlink="http://www.w3.org/1999/xlink">
  <symbol id="logo" viewBox="0 0 118 114">
    <path d="M32.6581 95.8415C30.1654 98.6021 27.0071 99.9421 29.8493 102.279C32.6915 104.615 33.6083 101.436 36.1005 98.6712L106.014 27.8465C107.211 26.5121 107.815 24.7884 107.695 23.0516C107.576 21.3148 106.742 19.7058 105.376 18.576C104.002 17.4548 103 17.212 101.565 17.9099C99.4239 18.9511 98.1618 20.584 96.9565 21.9111L32.6581 95.8415Z" fill="#DFA636"/>
    <path d="M28.7152 96.4408C25.5132 94.5451 28.4248 92.7767 30.4385 89.6971L80.3193 5.34003C81.2958 3.86025 82.8421 2.8034 84.6207 2.40021C86.3993 1.99703 88.2658 2.28025 89.8126 3.18804C93.0146 5.08379 90.491 8.28571 88.4727 11.3655L60.5 52L34.3258 91.9929C32.3075 95.0726 31.9218 98.3364 28.7152 96.4408Z" fill="#DFA636"/>
    <path d="M77 88C77.4055 90.3505 79.5546 94.3464 84.9072 91.5258C91.5979 88 89.7732 93.2887 95.8557 91.5258C100.722 90.1155 105.182 90.9381 106.804 91.5258" stroke="#924DEB" stroke-linecap="round"/>
    <path d="M93 60C93 73.6261 85.4296 85.9538 74.2653 92.3627C69.5 95.5 71 89 71.5 87.5C70.5769 87.939 69.9626 94.4778 69 94.8361C65.2467 96.2334 61.2076 97 57 97C53.4146 97 49.9516 96.4759 46.6834 95.5C39 93.5 48.3783 91.8403 47.5 91.5C44.5 92 42.5145 93.9767 41.7908 93.6389C31.2478 88.7177 23.4839 78.8384 21.4978 67C20.4911 61 24.3455 64.3422 24.2643 63.5C24.1531 62.3483 21 62.1808 21 61C21 55.6467 22.1685 50.5663 24.2643 46C28.5 36 30 48.5 30.5 49C31.2287 47.7859 27.6377 40.1184 28.5 39.0028C35.0839 30.4851 45.4014 25 57 25C61.2076 25 65.2467 25.6771 69 26.9331C73.5 28 72.5 29.7496 66.5 31C67.5471 31.4499 73.897 28.9588 74.8877 29.5C83.2688 34.0786 89.5314 41.8383 91.9303 51.3164C92.4972 54.5 81 50 81.5 49C81.5 51.3164 92.4273 53.5896 92.4972 54C92.8279 55.9415 93 57.9453 93 60Z" fill="#924DEB"/>
    <path d="M54.4166 41.9499L55.3924 38.8896H55.2593L53.7957 41.3955L49.4269 47.1392H48.5177L46.4331 41.329L46.0339 38.8896H45.923L45.7013 41.9278L43.9937 50H41.266L44.5481 34.4765H47.0984L49.4269 41.5729L49.7152 43.3471H49.8261L50.8462 41.5286L56.0799 34.4765H58.8519L55.5698 50H52.709L54.4166 41.9499ZM62.6131 45.1434L62.6353 46.8731H62.7683L63.3671 45.1212L66.3831 38.9118H69.2882L63.9658 48.869C63.5223 49.6969 63.101 50.4583 62.7018 51.1532C62.3174 51.848 61.9256 52.4468 61.5264 52.9495C61.1273 53.4521 60.7133 53.8439 60.2845 54.1248C59.8558 54.4057 59.3975 54.5462 58.9096 54.5462C58.2591 54.5462 57.7712 54.4353 57.446 54.2135L58.1778 52.0402C58.2665 52.0846 58.3552 52.1142 58.4439 52.1289C58.5474 52.1437 58.6435 52.1511 58.7322 52.1511C59.087 52.1511 59.4492 51.9811 59.8188 51.6411C60.1884 51.301 60.5581 50.754 60.9277 50L58.8431 38.9118H61.97L62.6131 45.1434ZM38.5034 72.5023H33.1146L31.7396 79H28.8567L32.1388 63.4765H35.0217L33.6911 69.7968H39.08L40.4106 63.4765H43.2936L40.0114 79H37.1285L38.5034 72.5023ZM43.0058 75.4074C43.0058 74.2395 43.1684 73.175 43.4937 72.214C43.8337 71.253 44.2772 70.4325 44.8243 69.7524C45.3861 69.0723 46.0292 68.5475 46.7536 68.1779C47.4928 67.7935 48.2616 67.6013 49.06 67.6013C49.7696 67.6013 50.3684 67.7122 50.8563 67.9339C51.3441 68.1557 51.7359 68.4514 52.0316 68.821C52.3421 69.1906 52.5638 69.612 52.6969 70.0851C52.83 70.5582 52.8965 71.046 52.8965 71.5487C52.8965 72.7019 52.7339 73.759 52.4086 74.7199C52.0834 75.6661 51.6472 76.4793 51.1002 77.1594C50.5532 77.8394 49.9174 78.3717 49.193 78.7561C48.4686 79.1257 47.7072 79.3105 46.9088 79.3105C46.214 79.3105 45.6226 79.1996 45.1347 78.9778C44.6468 78.7413 44.2403 78.4382 43.915 78.0686C43.6045 77.699 43.3754 77.285 43.2275 76.8267C43.0797 76.3536 43.0058 75.8805 43.0058 75.4074ZM45.8222 75.0304C45.8222 76.361 46.3027 77.0263 47.2637 77.0263C47.6185 77.0263 47.9659 76.8711 48.306 76.5606C48.646 76.2501 48.9491 75.8435 49.2152 75.3409C49.4813 74.8382 49.6883 74.269 49.8361 73.6333C49.9988 72.9976 50.0801 72.3618 50.0801 71.7261C50.0801 71.1347 49.9766 70.6838 49.7696 70.3734C49.5774 70.0481 49.2078 69.8855 48.6608 69.8855C48.306 69.8855 47.9585 70.0333 47.6185 70.329C47.2784 70.6247 46.9754 71.0165 46.7093 71.5044C46.4431 71.9775 46.2288 72.5245 46.0661 73.1454C45.9035 73.7664 45.8222 74.3947 45.8222 75.0304ZM56.8903 63.4765H59.618L58.2431 69.8633H58.3318C58.524 69.5972 58.7458 69.3385 58.9971 69.0871C59.2484 68.821 59.5219 68.5845 59.8176 68.3775C60.1281 68.1557 60.4607 67.9783 60.8156 67.8452C61.1704 67.7122 61.5622 67.6456 61.9909 67.6456C62.7893 67.6456 63.388 67.9265 63.7872 68.4884C64.1864 69.0502 64.386 69.7968 64.386 70.7282C64.386 72.1327 64.1864 73.3672 63.7872 74.4316C63.4028 75.4961 62.8928 76.3906 62.257 77.115C61.6213 77.8246 60.9043 78.3643 60.1059 78.7339C59.3076 79.0887 58.5018 79.2661 57.6887 79.2661C56.7868 79.2661 55.9885 79.1774 55.2936 79C54.6135 78.8374 54.0961 78.6304 53.7413 78.3791L56.8903 63.4765ZM56.8016 76.6715C56.9643 76.7897 57.1638 76.8711 57.4004 76.9154C57.6369 76.9598 57.8957 76.9819 58.1766 76.9819C58.5462 76.9819 58.9306 76.8637 59.3297 76.6271C59.7289 76.3758 60.0911 76.0136 60.4164 75.5405C60.7564 75.0674 61.0299 74.4908 61.2369 73.8107C61.4587 73.1158 61.5696 72.3323 61.5696 71.46C61.5696 70.4399 61.2739 69.9298 60.6825 69.9298C60.3868 69.9298 60.0911 70.0111 59.7954 70.1738C59.5145 70.3364 59.241 70.5434 58.9749 70.7947C58.7088 71.0313 58.4649 71.29 58.2431 71.5709C58.0361 71.8518 57.8661 72.1179 57.733 72.3692L56.8016 76.6715ZM68.2385 63.4765H70.9662L69.5912 69.8633H69.6799C69.8721 69.5972 70.0939 69.3385 70.3452 69.0871C70.5965 68.821 70.8701 68.5845 71.1657 68.3775C71.4762 68.1557 71.8089 67.9783 72.1637 67.8452C72.5185 67.7122 72.9103 67.6456 73.339 67.6456C74.1374 67.6456 74.7362 67.9265 75.1353 68.4884C75.5345 69.0502 75.7341 69.7968 75.7341 70.7282C75.7341 72.1327 75.5345 73.3672 75.1353 74.4316C74.7509 75.4961 74.2409 76.3906 73.6052 77.115C72.9694 77.8246 72.2524 78.3643 71.454 78.7339C70.6557 79.0887 69.8499 79.2661 69.0368 79.2661C68.135 79.2661 67.3366 79.1774 66.6417 79C65.9617 78.8374 65.4442 78.6304 65.0894 78.3791L68.2385 63.4765ZM68.1497 76.6715C68.3124 76.7897 68.512 76.8711 68.7485 76.9154C68.9851 76.9598 69.2438 76.9819 69.5247 76.9819C69.8943 76.9819 70.2787 76.8637 70.6779 76.6271C71.077 76.3758 71.4393 76.0136 71.7645 75.5405C72.1045 75.0674 72.3781 74.4908 72.585 73.8107C72.8068 73.1158 72.9177 72.3323 72.9177 71.46C72.9177 70.4399 72.622 69.9298 72.0306 69.9298C71.7349 69.9298 71.4393 70.0111 71.1436 70.1738C70.8627 70.3364 70.5892 70.5434 70.323 70.7947C70.0569 71.0313 69.813 71.29 69.5912 71.5709C69.3842 71.8518 69.2142 72.1179 69.0812 72.3692L68.1497 76.6715ZM80.3499 74.1434L80.3721 75.8731H80.5052L81.1039 74.1212L84.1199 67.9118H87.025L81.7027 77.869C81.2592 78.6969 80.8378 79.4583 80.4386 80.1532C80.0542 80.848 79.6624 81.4468 79.2633 81.9495C78.8641 82.4521 78.4501 82.8439 78.0214 83.1248C77.5926 83.4057 77.1343 83.5462 76.6464 83.5462C75.9959 83.5462 75.5081 83.4353 75.1828 83.2135L75.9146 81.0402C76.0033 81.0846 76.092 81.1142 76.1807 81.1289C76.2842 81.1437 76.3803 81.1511 76.469 81.1511C76.8239 81.1511 77.1861 80.9811 77.5557 80.6411C77.9253 80.301 78.2949 79.754 78.6645 79L76.5799 67.9118H79.7068L80.3499 74.1434Z" fill="white"/>
  </symbol>
</svg>